<svg xmlns="http://www.w3.org/2000/svg" width="20" height="20" fill="none"><path fill="#11B3FE" d="M17.57 8.04c.32-2.1-1.29-3.23-3.47-3.98l.7-2.85-1.73-.43-.69 2.77c-.45-.12-.92-.22-1.39-.33l.7-2.79L9.96 0l-.71 2.85-1.1-.26v-.01l-2.4-.6-.46 1.85s1.29.3 1.26.31c.7.18.83.64.8 1.01l-.8 3.25c.05 0 .11.03.18.05l-.18-.04-1.14 4.54c-.08.21-.3.53-.8.41.03.03-1.25-.31-1.25-.31l-.86 1.98 2.26.56 1.23.32-.72 2.88 1.73.43.71-2.84 1.39.35-.71 2.84 1.73.43.72-2.87c2.95.56 5.17.33 6.11-2.34.75-2.15-.04-3.4-1.6-4.2 1.14-.27 2-1.01 2.22-2.55Zm-3.96 5.55c-.53 2.16-4.16 1-5.33.7l.95-3.82c1.17.3 4.94.88 4.38 3.12Zm.54-5.58c-.5 1.96-3.5.96-4.48.72l.86-3.46c.98.24 4.13.7 3.62 2.74Z"/></svg>